<?xml version="1.0" encoding="utf-8"?>
<!-- Generator: Adobe Illustrator 17.1.0, SVG Export Plug-In . SVG Version: 6.00 Build 0)  -->
<!DOCTYPE svg PUBLIC "-//W3C//DTD SVG 1.1//EN" "http://www.w3.org/Graphics/SVG/1.1/DTD/svg11.dtd">
<svg version="1.1" id="Capa_1" xmlns="http://www.w3.org/2000/svg" xmlns:xlink="http://www.w3.org/1999/xlink" x="0px" y="0px"
	 viewBox="0 0 201.3 150.9" enable-background="new 0 0 201.3 150.9" xml:space="preserve">
<radialGradient id="SVGID_1_" cx="695.3817" cy="881.5425" r="871.1394" gradientTransform="matrix(0.9988 0 0 0.9938 1.1632 3.0958)" gradientUnits="userSpaceOnUse">
	<stop  offset="0" style="stop-color:#FFFFFF"/>
	<stop  offset="0.3874" style="stop-color:#FDFDFD"/>
	<stop  offset="0.6103" style="stop-color:#F4F4F4"/>
	<stop  offset="0.791" style="stop-color:#E6E6E6"/>
	<stop  offset="0.8976" style="stop-color:#DADADA"/>
	<stop  offset="1" style="stop-color:#B2B2B2"/>
</radialGradient>
<rect x="233.2" y="82.1" opacity="0.7" fill="url(#SVGID_1_)" width="800" height="800"/>
<g>
	<polygon fill="#72C1E9" points="566.6,229.3 545.4,245.9 574.4,251.3 	"/>
	<polygon fill="#36A7DF" points="582.8,275.1 614.3,239.6 566.6,229.3 	"/>
	<polygon fill="#86CAEC" points="659.3,188.6 582.8,275.1 672.7,262.2 	"/>
	<polygon fill="#36A7DF" points="659.3,188.6 753.2,184.7 672.7,262.2 	"/>
	<polygon fill="#36A7DF" points="582.8,275.1 656.7,319.6 672.7,262.2 	"/>
	<polygon fill="#86CAEC" points="653.7,330.5 672.7,262.2 696.9,365.9 	"/>
</g>
<g>
	<polygon fill="#86CAEC" points="509.8,685.9 441,649.3 460.8,675.3 462.2,684.7 	"/>
	<polygon fill="#36A7DF" points="417.2,677.3 441,649.3 460.8,675.3 467.1,717.9 	"/>
	<polygon fill="#86CAEC" points="413.5,674.3 467.1,717.9 429.2,737 	"/>
	<polygon fill="#36A7DF" points="413.5,674.3 308.8,587.1 429.2,737 	"/>
	<polygon fill="#86CAEC" points="419,724.2 340.2,682.7 308.8,587.1 	"/>
	<polygon fill="#36A7DF" points="419,724.2 340.2,682.7 408.3,762.4 	"/>
	<polygon fill="#86CAEC" points="408.3,762.4 381.7,743.8 374.3,722.6 	"/>
	<polygon fill="#5EB9E5" points="408.3,762.4 373.5,753.8 381.7,743.8 	"/>
	<polygon fill="#36A7DF" points="381.7,743.8 374.3,722.6 339,770.8 341.8,792.2 	"/>
	<polygon fill="#86CAEC" points="339,770.8 319.7,797.6 328.4,804.9 341.8,792 	"/>
</g>
<g>
	<polygon fill="#6197C5" points="174.5,34.4 180.6,18.9 201.3,30.6 	"/>
	<polygon fill="#97CFFF" points="181.2,18.7 135.9,32.9 163.3,60.7 	"/>
	<polygon fill="#6197C5" points="84.7,70.5 163.3,60.7 103.7,0.2 	"/>
	<polygon fill="#97CFFF" points="84.7,70.5 104,105.4 158.5,73.9 163.3,60.7 	"/>
	<polygon fill="#6197C5" points="84.7,70.5 81.5,150.9 109.6,115.5 	"/>
	<polygon fill="#97CFFF" points="15.4,0 84.7,70.5 103.7,0.2 	"/>
	<polygon fill="#6197C5" points="24.6,9.3 0,13.7 84.7,70.5 	"/>
</g>
<g>
	<polygon fill="#9599C7" points="728.6,498.6 705,579.9 729.4,553.8 750.2,490.5 	"/>
	<polygon fill="#4E55A2" points="729.4,553.8 734.9,585.5 753.5,561.7 750.1,490.6 	"/>
	<polygon fill="#7177B5" points="753.5,561.7 797.7,564.7 750.1,490.6 	"/>
	<polygon fill="#7177B5" points="752.3,443.7 750.2,490.5 806.1,464.6 804.3,388.7 	"/>
	<polygon fill="#4E55A2" points="804.3,388.7 807.5,526 834,456 	"/>
	<polygon fill="#9599C7" points="767.3,380.9 752.3,443.7 783.4,410.7 	"/>
	<polygon fill="#4E55A2" points="767.3,380.9 741.5,416.9 752.3,443.7 	"/>
	<polygon fill="#4E55A2" points="710.8,409.7 726.1,401.3 741.5,416.9 	"/>
	<polygon fill="#9599C7" points="710.8,409.7 741.5,416.9 752.3,443.7 705.4,449.7 	"/>
	<polygon fill="#4E55A2" points="705.4,449.7 728.6,498.6 750.2,490.5 752.3,443.7 	"/>
	<polygon fill="#4E55A2" points="710.8,409.7 694,422.9 708.9,424.4 	"/>
</g>
<g>
	<polygon fill="#36A7DF" points="967.5,652.7 877.6,638 915.7,672.6 	"/>
	<polygon fill="#5EB9E5" points="915.7,672.6 878.1,720.1 877.6,638 	"/>
	<polygon fill="#86CAEC" points="877.6,638 878.1,720.1 796.5,679.9 	"/>
	<polygon fill="#5EB9E5" points="868.4,642.8 850.1,624.2 817.3,661.4 822.8,666.4 	"/>
	<polygon fill="#36A7DF" points="822.8,666.4 802.9,648.5 796.5,679.9 	"/>
	<polygon fill="#86CAEC" points="802.9,648.5 783.9,647.8 796.5,679.9 	"/>
	<polygon fill="#36A7DF" points="783.9,647.8 789.1,661.1 769.9,658.4 	"/>
	<polygon fill="#36A7DF" points="850.1,624.2 823.2,628.8 839.4,636.5 	"/>
	<polygon fill="#36A7DF" points="878.1,720.1 796.5,679.9 812.1,716.8 	"/>
	<path fill="#86CAEC" d="M878.1,720.1c0,0.7,18.9,63.9,18.9,63.9l-84.7-67L878.1,720.1z"/>
	<polygon fill="#5EB9E5" points="878,720.1 933.5,774.8 903.8,806.9 	"/>
	<polygon fill="#36A7DF" points="938.4,754.9 928.2,769.6 890.6,732.5 	"/>
</g>
<g>
	<polygon fill="#66C8D4" points="843.6,246 822.6,225.5 807.1,233.1 810.5,245 	"/>
	<polygon fill="#00A4B7" points="807.1,233.1 798.6,240 810.5,245 	"/>
	<polygon fill="#00A4B7" points="843.6,246 810.5,245 811.1,268.4 	"/>
	<polygon fill="#00A4B7" points="843.6,246 830.1,284.4 811.9,289.4 811.1,268.4 	"/>
	<polygon fill="#33B6C5" points="894.8,250.3 859.1,202.1 830.1,284.4 872.7,289.2 	"/>
	<polygon fill="#66C8D4" points="894.8,250.3 859.1,202.1 922.9,139.9 	"/>
	<polygon fill="#00A4B7" points="891.9,170.2 889.4,128.6 859.1,202.1 	"/>
	<polygon fill="#66C8D4" points="872.6,289.2 910.1,324.1 830.1,284.4 	"/>
	<polygon fill="#33B6C5" points="910.1,324.1 862.7,327.5 811.9,289.4 830.1,284.4 	"/>
	<polygon fill="#00A4B7" points="862.7,327.5 848,316.5 853.1,335.4 	"/>
	<polygon fill="#00A4B7" points="938.8,319.1 872.6,289.2 910.1,324.1 	"/>
</g>
<g>
	<polygon fill="#00A4B7" points="615.6,473.6 615.2,460.4 606.7,471.3 	"/>
	<polygon fill="#33B6C5" points="615.2,460.4 606.7,471.3 587.8,450.6 	"/>
	<polygon fill="#66C8D4" points="606.7,471.3 587.8,450.6 591,496.4 	"/>
	<polygon fill="#00A4B7" points="587.8,450.6 591,496.4 558.4,475.2 	"/>
	<polygon fill="#66C8D4" points="591,496.4 558.4,475.2 467.4,553.2 	"/>
	<polygon fill="#33B6C5" points="591,496.4 573.5,531.9 467.4,553.2 	"/>
	<polygon fill="#00A4B7" points="534.3,539.7 538,552.1 520.6,542.5 	"/>
	<polygon fill="#33B6C5" points="558.4,475.2 484.2,538.7 477.8,448.2 	"/>
	<polygon fill="#00A4B7" points="482.5,515.1 484.2,538.7 406.7,538.9 	"/>
	<polygon fill="#33B6C5" points="484.2,538.7 467.4,553.2 406.7,538.9 	"/>
	<polygon fill="#00A4B7" points="467.4,553.2 448.4,548.7 433.9,561.2 	"/>
	<polygon fill="#66C8D4" points="558.4,475.2 524.1,411.5 413.5,426.6 	"/>
	<polygon fill="#00A4B7" points="558.4,475.2 544,414.1 528,418.5 	"/>
	<polygon fill="#00A4B7" points="477.8,448.2 450.4,438.9 435.4,443.8 	"/>
</g>
<g>
	<polygon fill="#4E55A2" points="628.7,655 633.2,666 621.9,668.5 	"/>
	<polygon fill="#7177B5" points="628.7,655 640.9,684.8 651.4,646.5 	"/>
	<polygon fill="#4E55A2" points="686.8,673.3 651.4,646.5 640.9,684.8 	"/>
	<polygon fill="#9599C7" points="686.8,673.3 640.9,684.8 640.7,751.7 719.6,714.4 	"/>
	<polygon fill="#7177B5" points="640.9,684.8 640.7,751.7 555.5,764.5 	"/>
	<polygon fill="#4E55A2" points="640.9,684.8 544.7,740.2 579.7,742.1 	"/>
	<polygon fill="#4E55A2" points="719.6,714.4 697.5,748.8 672.1,736.8 	"/>
	<polygon fill="#9599C7" points="719.6,714.4 735.1,815.6 697.5,748.8 	"/>
	<polygon fill="#4E55A2" points="723.4,794.8 697.5,748.8 694.5,811.6 	"/>
	<polygon fill="#7177B5" points="753.8,775.9 726.6,760.4 734.8,815.5 	"/>
</g>
<g>
	<g>
		<g>
			<path fill="#1D1D1B" d="M549.1,858.9v-0.2c-0.2,0.3-0.5,0.5-0.7,0.7c-0.2,0.2-0.5,0.3-0.8,0.4c-0.3,0.1-0.6,0.1-0.9,0.1
				c-0.4,0-0.9-0.1-1.2-0.3c-0.4-0.2-0.7-0.5-1-0.8c-0.3-0.3-0.5-0.8-0.6-1.2c-0.1-0.5-0.2-1-0.2-1.5c0-1.2,0.3-2.1,0.8-2.7
				c0.6-0.6,1.3-1,2.2-1c0.5,0,1,0.1,1.3,0.3c0.4,0.2,0.7,0.5,1.1,0.8v-2.7c0-0.4,0.1-0.7,0.2-0.9c0.2-0.2,0.4-0.3,0.6-0.3
				c0.3,0,0.5,0.1,0.7,0.3c0.2,0.2,0.2,0.4,0.2,0.8v8.2c0,0.4-0.1,0.6-0.2,0.8c-0.2,0.2-0.4,0.3-0.6,0.3c-0.3,0-0.5-0.1-0.6-0.3
				C549.2,859.5,549.1,859.3,549.1,858.9z M545.4,856.2c0,0.5,0.1,0.9,0.2,1.3c0.2,0.4,0.4,0.6,0.6,0.8c0.3,0.2,0.6,0.3,0.9,0.3
				c0.3,0,0.6-0.1,0.9-0.3c0.3-0.2,0.5-0.4,0.6-0.8c0.2-0.4,0.2-0.8,0.2-1.3c0-0.5-0.1-0.9-0.2-1.3c-0.2-0.4-0.4-0.6-0.7-0.8
				c-0.3-0.2-0.6-0.3-0.9-0.3c-0.3,0-0.6,0.1-0.9,0.3c-0.3,0.2-0.5,0.5-0.6,0.8C545.5,855.3,545.4,855.8,545.4,856.2z"/>
			<path fill="#1D1D1B" d="M557.8,856.7h-3.6c0,0.4,0.1,0.8,0.3,1.1c0.2,0.3,0.4,0.6,0.7,0.7c0.3,0.2,0.6,0.2,0.9,0.2
				c0.2,0,0.4,0,0.6-0.1c0.2-0.1,0.4-0.1,0.5-0.2c0.2-0.1,0.3-0.2,0.5-0.4c0.1-0.1,0.3-0.3,0.6-0.5c0.1-0.1,0.2-0.1,0.4-0.1
				c0.2,0,0.3,0.1,0.5,0.2c0.1,0.1,0.2,0.3,0.2,0.4c0,0.2-0.1,0.4-0.2,0.6c-0.1,0.2-0.3,0.4-0.6,0.6c-0.3,0.2-0.6,0.4-1,0.5
				c-0.4,0.1-0.9,0.2-1.4,0.2c-1.2,0-2.1-0.3-2.8-1c-0.7-0.7-1-1.6-1-2.8c0-0.5,0.1-1.1,0.2-1.5c0.2-0.5,0.4-0.9,0.7-1.2
				c0.3-0.3,0.7-0.6,1.2-0.8c0.5-0.2,1-0.3,1.5-0.3c0.7,0,1.3,0.1,1.9,0.5c0.5,0.3,0.9,0.7,1.2,1.2c0.3,0.5,0.4,1,0.4,1.5
				c0,0.5-0.1,0.8-0.4,0.9C558.7,856.6,558.3,856.7,557.8,856.7z M554.2,855.6h3.4c0-0.6-0.2-1.1-0.5-1.4c-0.3-0.3-0.7-0.5-1.2-0.5
				c-0.5,0-0.8,0.2-1.1,0.5C554.5,854.6,554.3,855,554.2,855.6z"/>
			<path fill="#1D1D1B" d="M566.9,857.6c0,0.5-0.1,0.9-0.4,1.3c-0.3,0.4-0.6,0.6-1.1,0.8c-0.5,0.2-1.1,0.3-1.8,0.3
				c-0.7,0-1.2-0.1-1.7-0.3c-0.5-0.2-0.8-0.5-1-0.8c-0.2-0.3-0.3-0.6-0.3-0.9c0-0.2,0.1-0.4,0.2-0.5c0.1-0.1,0.3-0.2,0.6-0.2
				c0.2,0,0.3,0,0.4,0.1c0.1,0.1,0.2,0.2,0.3,0.4c0.2,0.3,0.4,0.6,0.7,0.7c0.3,0.2,0.6,0.2,1.1,0.2c0.4,0,0.7-0.1,0.9-0.2
				c0.2-0.2,0.4-0.4,0.4-0.6c0-0.3-0.1-0.6-0.4-0.7c-0.2-0.1-0.7-0.3-1.2-0.4c-0.6-0.2-1.2-0.3-1.6-0.5c-0.4-0.2-0.7-0.4-1-0.7
				c-0.2-0.3-0.4-0.6-0.4-1c0-0.4,0.1-0.7,0.3-1.1c0.2-0.3,0.5-0.6,1-0.8c0.4-0.2,1-0.3,1.6-0.3c0.5,0,0.9,0,1.3,0.1
				c0.4,0.1,0.7,0.2,1,0.4c0.3,0.2,0.4,0.4,0.6,0.6c0.1,0.2,0.2,0.4,0.2,0.6c0,0.2-0.1,0.4-0.2,0.5c-0.1,0.1-0.3,0.2-0.6,0.2
				c-0.2,0-0.4,0-0.5-0.2c-0.1-0.1-0.3-0.3-0.5-0.5c-0.1-0.2-0.3-0.3-0.5-0.4c-0.2-0.1-0.4-0.2-0.8-0.2c-0.3,0-0.6,0.1-0.8,0.2
				c-0.2,0.1-0.3,0.3-0.3,0.5c0,0.2,0.1,0.4,0.2,0.5c0.2,0.1,0.4,0.2,0.7,0.3c0.3,0.1,0.7,0.2,1.1,0.3c0.6,0.1,1,0.3,1.4,0.5
				c0.4,0.2,0.6,0.4,0.8,0.7C566.8,856.9,566.9,857.2,566.9,857.6z"/>
			<path fill="#1D1D1B" d="M569.4,851.6c-0.3,0-0.5-0.1-0.7-0.2c-0.2-0.2-0.3-0.4-0.3-0.7c0-0.3,0.1-0.5,0.3-0.6
				c0.2-0.2,0.4-0.3,0.7-0.3c0.2,0,0.4,0.1,0.6,0.2c0.2,0.2,0.3,0.4,0.3,0.7c0,0.3-0.1,0.5-0.3,0.7
				C569.8,851.5,569.6,851.6,569.4,851.6z M570.3,853.5v5.3c0,0.4-0.1,0.6-0.3,0.8c-0.2,0.2-0.4,0.3-0.7,0.3c-0.3,0-0.5-0.1-0.7-0.3
				c-0.2-0.2-0.3-0.5-0.3-0.8v-5.3c0-0.4,0.1-0.6,0.3-0.8c0.2-0.2,0.4-0.3,0.7-0.3c0.3,0,0.5,0.1,0.7,0.3
				C570.2,852.9,570.3,853.2,570.3,853.5z"/>
			<path fill="#1D1D1B" d="M579,853.8v5.4c0,0.6-0.1,1.1-0.2,1.6c-0.1,0.4-0.3,0.8-0.6,1.1c-0.3,0.3-0.7,0.5-1.1,0.6
				c-0.5,0.1-1.1,0.2-1.7,0.2c-0.6,0-1.2-0.1-1.7-0.3c-0.5-0.2-0.9-0.4-1.2-0.7c-0.3-0.3-0.4-0.6-0.4-0.9c0-0.2,0.1-0.4,0.2-0.5
				c0.2-0.1,0.3-0.2,0.6-0.2c0.3,0,0.5,0.1,0.7,0.4c0.1,0.1,0.2,0.2,0.3,0.4c0.1,0.1,0.2,0.2,0.4,0.3c0.1,0.1,0.3,0.2,0.5,0.2
				c0.2,0,0.4,0.1,0.6,0.1c0.5,0,0.9-0.1,1.1-0.2c0.3-0.1,0.4-0.3,0.6-0.6c0.1-0.2,0.2-0.5,0.2-0.8c0-0.3,0-0.7,0-1.3
				c-0.3,0.4-0.6,0.7-1,0.9c-0.4,0.2-0.8,0.3-1.3,0.3c-0.6,0-1.2-0.2-1.6-0.5c-0.5-0.3-0.8-0.8-1.1-1.3c-0.3-0.6-0.4-1.2-0.4-2
				c0-0.5,0.1-1,0.2-1.5c0.2-0.4,0.4-0.8,0.6-1.1c0.3-0.3,0.6-0.5,1-0.7c0.4-0.1,0.8-0.2,1.2-0.2c0.5,0,1,0.1,1.4,0.3
				c0.4,0.2,0.7,0.5,1.1,0.9v-0.2c0-0.3,0.1-0.6,0.2-0.7c0.2-0.2,0.4-0.3,0.6-0.3c0.4,0,0.6,0.1,0.7,0.3
				C579,853.1,579,853.4,579,853.8z M573.6,856.2c0,0.7,0.2,1.3,0.5,1.7c0.3,0.4,0.8,0.6,1.3,0.6c0.3,0,0.6-0.1,0.9-0.3
				c0.3-0.2,0.5-0.4,0.7-0.7c0.2-0.3,0.3-0.7,0.3-1.2c0-0.8-0.2-1.3-0.5-1.8c-0.3-0.4-0.8-0.6-1.3-0.6c-0.5,0-1,0.2-1.3,0.6
				C573.8,854.9,573.6,855.4,573.6,856.2z"/>
			<path fill="#1D1D1B" d="M582.6,853.5v0.2c0.3-0.4,0.7-0.7,1.1-0.9c0.4-0.2,0.8-0.3,1.3-0.3c0.5,0,0.9,0.1,1.3,0.3
				c0.4,0.2,0.7,0.5,0.9,0.9c0.1,0.2,0.2,0.5,0.2,0.7c0,0.3,0.1,0.6,0.1,1v3.4c0,0.4-0.1,0.6-0.3,0.8c-0.2,0.2-0.4,0.3-0.7,0.3
				c-0.3,0-0.5-0.1-0.7-0.3c-0.2-0.2-0.3-0.5-0.3-0.8v-3.1c0-0.6-0.1-1.1-0.3-1.4c-0.2-0.3-0.5-0.5-1-0.5c-0.3,0-0.6,0.1-0.9,0.3
				c-0.3,0.2-0.5,0.5-0.6,0.8c-0.1,0.3-0.1,0.8-0.1,1.5v2.3c0,0.4-0.1,0.7-0.3,0.8c-0.2,0.2-0.4,0.3-0.7,0.3c-0.3,0-0.5-0.1-0.7-0.3
				c-0.2-0.2-0.3-0.5-0.3-0.8v-5.3c0-0.4,0.1-0.6,0.2-0.8c0.2-0.2,0.4-0.3,0.6-0.3c0.2,0,0.3,0,0.4,0.1c0.1,0.1,0.2,0.2,0.3,0.4
				C582.5,853.1,582.6,853.3,582.6,853.5z"/>
			<path fill="#1D1D1B" d="M594.4,856.7h-3.6c0,0.4,0.1,0.8,0.3,1.1c0.2,0.3,0.4,0.6,0.7,0.7c0.3,0.2,0.6,0.2,0.9,0.2
				c0.2,0,0.4,0,0.6-0.1c0.2-0.1,0.4-0.1,0.5-0.2c0.2-0.1,0.3-0.2,0.5-0.4c0.1-0.1,0.3-0.3,0.6-0.5c0.1-0.1,0.2-0.1,0.4-0.1
				c0.2,0,0.3,0.1,0.5,0.2c0.1,0.1,0.2,0.3,0.2,0.4c0,0.2-0.1,0.4-0.2,0.6c-0.1,0.2-0.3,0.4-0.6,0.6c-0.3,0.2-0.6,0.4-1,0.5
				c-0.4,0.1-0.9,0.2-1.4,0.2c-1.2,0-2.1-0.3-2.8-1c-0.7-0.7-1-1.6-1-2.8c0-0.5,0.1-1.1,0.2-1.5c0.2-0.5,0.4-0.9,0.7-1.2
				c0.3-0.3,0.7-0.6,1.2-0.8c0.5-0.2,1-0.3,1.5-0.3c0.7,0,1.3,0.1,1.9,0.5c0.5,0.3,0.9,0.7,1.2,1.2c0.3,0.5,0.4,1,0.4,1.5
				c0,0.5-0.1,0.8-0.4,0.9C595.3,856.6,594.9,856.7,594.4,856.7z M590.8,855.6h3.4c0-0.6-0.2-1.1-0.5-1.4c-0.3-0.3-0.7-0.5-1.2-0.5
				c-0.5,0-0.8,0.2-1.1,0.5C591.1,854.6,590.9,855,590.8,855.6z"/>
			<path fill="#1D1D1B" d="M602.6,858.9v-0.2c-0.3,0.3-0.5,0.5-0.7,0.7c-0.2,0.2-0.5,0.3-0.8,0.4c-0.3,0.1-0.6,0.1-0.9,0.1
				c-0.4,0-0.9-0.1-1.2-0.3c-0.4-0.2-0.7-0.5-1-0.8c-0.3-0.3-0.5-0.8-0.6-1.2c-0.1-0.5-0.2-1-0.2-1.5c0-1.2,0.3-2.1,0.8-2.7
				c0.6-0.6,1.3-1,2.2-1c0.5,0,1,0.1,1.3,0.3c0.4,0.2,0.7,0.5,1.1,0.8v-2.7c0-0.4,0.1-0.7,0.2-0.9c0.2-0.2,0.4-0.3,0.6-0.3
				c0.3,0,0.5,0.1,0.6,0.3c0.1,0.2,0.2,0.4,0.2,0.8v8.2c0,0.4-0.1,0.6-0.2,0.8c-0.2,0.2-0.4,0.3-0.6,0.3c-0.3,0-0.5-0.1-0.6-0.3
				C602.7,859.5,602.6,859.3,602.6,858.9z M598.9,856.2c0,0.5,0.1,0.9,0.2,1.3c0.2,0.4,0.4,0.6,0.6,0.8c0.3,0.2,0.6,0.3,0.9,0.3
				c0.3,0,0.6-0.1,0.9-0.3c0.3-0.2,0.5-0.4,0.6-0.8c0.2-0.4,0.2-0.8,0.2-1.3c0-0.5-0.1-0.9-0.2-1.3c-0.2-0.4-0.4-0.6-0.7-0.8
				c-0.3-0.2-0.6-0.3-0.9-0.3c-0.3,0-0.6,0.1-0.9,0.3c-0.3,0.2-0.5,0.5-0.6,0.8C599,855.3,598.9,855.8,598.9,856.2z"/>
			<path fill="#1D1D1B" d="M611.4,850.8v2.8c0.3-0.4,0.7-0.6,1.1-0.8c0.4-0.2,0.8-0.3,1.3-0.3c0.6,0,1.2,0.1,1.6,0.4
				c0.5,0.3,0.8,0.7,1.1,1.3c0.3,0.5,0.4,1.2,0.4,2c0,0.6-0.1,1.1-0.2,1.5c-0.1,0.5-0.4,0.9-0.6,1.2c-0.3,0.3-0.6,0.6-1,0.8
				c-0.4,0.2-0.8,0.3-1.3,0.3c-0.3,0-0.6,0-0.8-0.1c-0.2-0.1-0.5-0.2-0.6-0.3c-0.2-0.1-0.3-0.2-0.4-0.3c-0.1-0.1-0.3-0.3-0.5-0.5
				v0.2c0,0.3-0.1,0.6-0.3,0.8c-0.2,0.2-0.4,0.3-0.6,0.3c-0.3,0-0.5-0.1-0.6-0.3c-0.2-0.2-0.2-0.4-0.2-0.8v-8.1
				c0-0.4,0.1-0.7,0.2-0.8c0.2-0.2,0.4-0.3,0.6-0.3c0.3,0,0.5,0.1,0.7,0.3C611.3,850.2,611.4,850.5,611.4,850.8z M611.5,856.3
				c0,0.7,0.2,1.3,0.5,1.7c0.3,0.4,0.8,0.6,1.3,0.6c0.5,0,0.9-0.2,1.2-0.6c0.3-0.4,0.5-1,0.5-1.7c0-0.5-0.1-0.9-0.2-1.3
				c-0.1-0.3-0.3-0.6-0.6-0.8c-0.3-0.2-0.6-0.3-0.9-0.3c-0.4,0-0.7,0.1-0.9,0.3c-0.3,0.2-0.5,0.5-0.7,0.8
				C611.5,855.4,611.5,855.8,611.5,856.3z"/>
			<path fill="#1D1D1B" d="M619.9,860.2l0.2-0.4l-2.3-5.7c-0.1-0.3-0.2-0.6-0.2-0.7c0-0.2,0-0.3,0.1-0.4c0.1-0.1,0.2-0.2,0.3-0.3
				c0.1-0.1,0.3-0.1,0.4-0.1c0.3,0,0.5,0.1,0.6,0.2c0.1,0.2,0.3,0.4,0.4,0.7l1.6,4.6l1.5-4.2c0.1-0.3,0.2-0.6,0.3-0.8
				c0.1-0.2,0.2-0.3,0.3-0.4c0.1-0.1,0.3-0.1,0.5-0.1c0.1,0,0.3,0,0.4,0.1c0.1,0.1,0.2,0.2,0.3,0.3c0.1,0.1,0.1,0.3,0.1,0.4
				c0,0.1,0,0.2-0.1,0.4c0,0.2-0.1,0.3-0.2,0.5l-2.4,6.3c-0.2,0.6-0.4,1-0.6,1.3c-0.2,0.3-0.5,0.6-0.8,0.7c-0.3,0.2-0.8,0.3-1.3,0.3
				c-0.5,0-0.9-0.1-1.2-0.2c-0.3-0.1-0.4-0.3-0.4-0.6c0-0.2,0.1-0.4,0.2-0.5c0.1-0.1,0.3-0.2,0.6-0.2c0.1,0,0.2,0,0.3,0
				c0.1,0,0.2,0,0.3,0c0.2,0,0.4,0,0.5-0.1c0.1-0.1,0.2-0.2,0.3-0.3C619.6,860.8,619.7,860.5,619.9,860.2z"/>
		</g>
		<g>
			<path fill="#1D1D1B" d="M654.1,852.6h0.4v-0.6c0-0.6,0.1-1,0.2-1.4c0.1-0.3,0.4-0.6,0.7-0.7c0.3-0.2,0.8-0.2,1.4-0.2
				c1.1,0,1.6,0.3,1.6,0.8c0,0.2-0.1,0.3-0.2,0.4c-0.1,0.1-0.2,0.2-0.4,0.2c-0.1,0-0.2,0-0.4,0c-0.2,0-0.3,0-0.4,0
				c-0.3,0-0.6,0.1-0.6,0.3c-0.1,0.2-0.1,0.5-0.1,0.8v0.4h0.5c0.7,0,1.1,0.2,1.1,0.6c0,0.3-0.1,0.5-0.3,0.6
				c-0.2,0.1-0.4,0.1-0.8,0.1h-0.5v4.9c0,0.4-0.1,0.6-0.3,0.8c-0.2,0.2-0.4,0.3-0.7,0.3c-0.3,0-0.5-0.1-0.7-0.3
				c-0.2-0.2-0.3-0.5-0.3-0.8V854H654c-0.3,0-0.5-0.1-0.6-0.2c-0.2-0.1-0.2-0.3-0.2-0.5C653.2,852.9,653.5,852.6,654.1,852.6z"/>
			<path fill="#1D1D1B" d="M660.7,857.3v1.6c0,0.4-0.1,0.7-0.3,0.8c-0.2,0.2-0.4,0.3-0.7,0.3c-0.3,0-0.5-0.1-0.7-0.3
				c-0.2-0.2-0.3-0.5-0.3-0.8v-5.1c0-0.8,0.3-1.2,0.9-1.2c0.3,0,0.5,0.1,0.7,0.3c0.1,0.2,0.2,0.5,0.2,0.9c0.2-0.4,0.4-0.7,0.7-0.9
				c0.2-0.2,0.5-0.3,0.9-0.3c0.4,0,0.8,0.1,1.1,0.3c0.4,0.2,0.5,0.5,0.5,0.8c0,0.2-0.1,0.4-0.2,0.6c-0.2,0.1-0.3,0.2-0.5,0.2
				c-0.1,0-0.2,0-0.5-0.1c-0.3-0.1-0.5-0.1-0.7-0.1c-0.3,0-0.5,0.1-0.7,0.2c-0.2,0.1-0.3,0.4-0.4,0.6c-0.1,0.3-0.2,0.6-0.2,1
				C660.7,856.3,660.7,856.8,660.7,857.3z"/>
			<path fill="#1D1D1B" d="M669.8,856.7h-3.6c0,0.4,0.1,0.8,0.3,1.1c0.2,0.3,0.4,0.6,0.7,0.7c0.3,0.2,0.6,0.2,0.9,0.2
				c0.2,0,0.4,0,0.6-0.1c0.2-0.1,0.4-0.1,0.5-0.2c0.2-0.1,0.3-0.2,0.5-0.4c0.1-0.1,0.3-0.3,0.6-0.5c0.1-0.1,0.2-0.1,0.4-0.1
				c0.2,0,0.3,0.1,0.5,0.2c0.1,0.1,0.2,0.3,0.2,0.4c0,0.2-0.1,0.4-0.2,0.6c-0.1,0.2-0.3,0.4-0.6,0.6c-0.3,0.2-0.6,0.4-1,0.5
				c-0.4,0.1-0.9,0.2-1.4,0.2c-1.2,0-2.1-0.3-2.8-1c-0.7-0.7-1-1.6-1-2.8c0-0.5,0.1-1.1,0.2-1.5c0.2-0.5,0.4-0.9,0.7-1.2
				c0.3-0.3,0.7-0.6,1.2-0.8c0.5-0.2,1-0.3,1.5-0.3c0.7,0,1.3,0.1,1.9,0.5c0.5,0.3,0.9,0.7,1.2,1.2c0.3,0.5,0.4,1,0.4,1.5
				c0,0.5-0.1,0.8-0.4,0.9C670.6,856.6,670.2,856.7,669.8,856.7z M666.1,855.6h3.4c0-0.6-0.2-1.1-0.5-1.4c-0.3-0.3-0.7-0.5-1.2-0.5
				c-0.5,0-0.8,0.2-1.1,0.5C666.4,854.6,666.2,855,666.1,855.6z"/>
			<path fill="#1D1D1B" d="M678,856.7h-3.6c0,0.4,0.1,0.8,0.3,1.1c0.2,0.3,0.4,0.6,0.7,0.7c0.3,0.2,0.6,0.2,0.9,0.2
				c0.2,0,0.4,0,0.6-0.1c0.2-0.1,0.4-0.1,0.5-0.2c0.2-0.1,0.3-0.2,0.5-0.4c0.1-0.1,0.3-0.3,0.6-0.5c0.1-0.1,0.2-0.1,0.4-0.1
				c0.2,0,0.3,0.1,0.5,0.2c0.1,0.1,0.2,0.3,0.2,0.4c0,0.2-0.1,0.4-0.2,0.6c-0.1,0.2-0.3,0.4-0.6,0.6c-0.3,0.2-0.6,0.4-1,0.5
				c-0.4,0.1-0.9,0.2-1.4,0.2c-1.2,0-2.1-0.3-2.8-1c-0.7-0.7-1-1.6-1-2.8c0-0.5,0.1-1.1,0.2-1.5c0.2-0.5,0.4-0.9,0.7-1.2
				c0.3-0.3,0.7-0.6,1.2-0.8c0.5-0.2,1-0.3,1.5-0.3c0.7,0,1.3,0.1,1.9,0.5c0.5,0.3,0.9,0.7,1.2,1.2c0.3,0.5,0.4,1,0.4,1.5
				c0,0.5-0.1,0.8-0.4,0.9C678.9,856.6,678.5,856.7,678,856.7z M674.4,855.6h3.4c0-0.6-0.2-1.1-0.5-1.4c-0.3-0.3-0.7-0.5-1.2-0.5
				c-0.5,0-0.8,0.2-1.1,0.5C674.6,854.6,674.4,855,674.4,855.6z"/>
			<path fill="#1D1D1B" d="M682.6,853.5v0.2c0.4-0.4,0.7-0.7,1.1-0.9c0.4-0.2,0.8-0.3,1.3-0.3c0.6,0,1.1,0.1,1.6,0.4
				c0.5,0.3,0.9,0.7,1.1,1.3c0.3,0.6,0.4,1.2,0.4,2c0,0.6-0.1,1.1-0.2,1.6c-0.2,0.5-0.4,0.9-0.7,1.2c-0.3,0.3-0.6,0.6-1,0.7
				c-0.4,0.2-0.8,0.3-1.2,0.3c-0.5,0-1-0.1-1.3-0.3c-0.4-0.2-0.7-0.5-1-0.9v2.8c0,0.8-0.3,1.2-0.9,1.2c-0.4,0-0.6-0.1-0.7-0.3
				c-0.1-0.2-0.2-0.5-0.2-0.9v-8c0-0.4,0.1-0.6,0.2-0.8c0.2-0.2,0.4-0.3,0.6-0.3c0.3,0,0.5,0.1,0.6,0.3
				C682.5,852.9,682.6,853.2,682.6,853.5z M686.2,856.2c0-0.5-0.1-0.9-0.2-1.3c-0.2-0.4-0.4-0.6-0.6-0.8c-0.3-0.2-0.6-0.3-0.9-0.3
				c-0.5,0-0.9,0.2-1.3,0.6c-0.3,0.4-0.5,1-0.5,1.8c0,0.7,0.2,1.3,0.5,1.7c0.3,0.4,0.8,0.6,1.3,0.6c0.3,0,0.6-0.1,0.9-0.3
				c0.3-0.2,0.5-0.4,0.6-0.8C686.2,857.1,686.2,856.7,686.2,856.2z"/>
			<path fill="#1D1D1B" d="M690.5,851.6c-0.3,0-0.5-0.1-0.7-0.2c-0.2-0.2-0.3-0.4-0.3-0.7c0-0.3,0.1-0.5,0.3-0.6
				c0.2-0.2,0.4-0.3,0.7-0.3c0.2,0,0.4,0.1,0.6,0.2c0.2,0.2,0.3,0.4,0.3,0.7c0,0.3-0.1,0.5-0.3,0.7
				C691,851.5,690.8,851.6,690.5,851.6z M691.4,853.5v5.3c0,0.4-0.1,0.6-0.3,0.8c-0.2,0.2-0.4,0.3-0.7,0.3c-0.3,0-0.5-0.1-0.7-0.3
				c-0.2-0.2-0.3-0.5-0.3-0.8v-5.3c0-0.4,0.1-0.6,0.3-0.8c0.2-0.2,0.4-0.3,0.7-0.3c0.3,0,0.5,0.1,0.7,0.3
				C691.3,852.9,691.4,853.2,691.4,853.5z"/>
			<path fill="#1D1D1B" d="M697.9,859.2l-1.6-2.7l-1,1v1.5c0,0.4-0.1,0.6-0.3,0.8c-0.2,0.2-0.4,0.3-0.6,0.3c-0.3,0-0.5-0.1-0.7-0.3
				c-0.2-0.2-0.2-0.5-0.2-0.8V851c0-0.4,0.1-0.7,0.2-0.9c0.2-0.2,0.4-0.3,0.7-0.3c0.3,0,0.5,0.1,0.7,0.3c0.2,0.2,0.2,0.5,0.2,0.9
				v4.5l2.1-2.2c0.3-0.3,0.5-0.5,0.6-0.6c0.1-0.1,0.3-0.1,0.5-0.1c0.2,0,0.4,0.1,0.6,0.2c0.2,0.1,0.2,0.3,0.2,0.6
				c0,0.3-0.3,0.6-0.8,1.1l-1,0.9l1.9,3c0.1,0.2,0.2,0.4,0.3,0.5c0.1,0.1,0.1,0.2,0.1,0.3c0,0.3-0.1,0.5-0.2,0.7
				c-0.2,0.2-0.4,0.3-0.6,0.3c-0.2,0-0.4-0.1-0.5-0.2C698.3,859.7,698.2,859.5,697.9,859.2z"/>
			<path fill="#1D1D1B" d="M702.5,860c-0.3,0-0.5-0.1-0.7-0.3c-0.2-0.2-0.3-0.4-0.3-0.8c0-0.3,0.1-0.5,0.3-0.7
				c0.2-0.2,0.4-0.3,0.7-0.3c0.3,0,0.5,0.1,0.7,0.3c0.2,0.2,0.3,0.4,0.3,0.7c0,0.3-0.1,0.6-0.3,0.8C703,859.9,702.8,860,702.5,860z"
				/>
			<path fill="#1D1D1B" d="M712.3,857.7c0,0.2-0.1,0.5-0.2,0.7c-0.1,0.3-0.3,0.5-0.6,0.8c-0.3,0.2-0.6,0.4-1.1,0.6
				c-0.4,0.1-0.9,0.2-1.5,0.2c-1.1,0-2-0.3-2.7-1c-0.6-0.7-1-1.6-1-2.7c0-0.8,0.1-1.4,0.4-2c0.3-0.6,0.7-1,1.3-1.4
				c0.6-0.3,1.2-0.5,2-0.5c0.5,0,0.9,0.1,1.3,0.2c0.4,0.1,0.7,0.3,1,0.5c0.3,0.2,0.5,0.5,0.6,0.7c0.1,0.3,0.2,0.5,0.2,0.7
				c0,0.2-0.1,0.4-0.3,0.6c-0.2,0.2-0.4,0.2-0.6,0.2c-0.2,0-0.3,0-0.4-0.1c-0.1-0.1-0.2-0.2-0.3-0.4c-0.2-0.3-0.5-0.6-0.7-0.8
				c-0.2-0.2-0.6-0.3-0.9-0.3c-0.5,0-1,0.2-1.3,0.6c-0.3,0.4-0.5,1-0.5,1.8c0,0.3,0,0.7,0.1,1c0.1,0.3,0.2,0.5,0.4,0.7
				c0.2,0.2,0.4,0.4,0.6,0.5c0.2,0.1,0.5,0.2,0.8,0.2c0.4,0,0.7-0.1,1-0.3c0.3-0.2,0.5-0.4,0.7-0.8c0.1-0.2,0.2-0.4,0.4-0.5
				c0.1-0.1,0.3-0.2,0.5-0.2c0.2,0,0.4,0.1,0.6,0.3C712.2,857.3,712.3,857.5,712.3,857.7z"/>
			<path fill="#1D1D1B" d="M720.8,856.2c0,0.5-0.1,1.1-0.3,1.5c-0.2,0.5-0.4,0.9-0.7,1.2c-0.3,0.3-0.7,0.6-1.2,0.8
				c-0.5,0.2-1,0.3-1.5,0.3c-0.6,0-1.1-0.1-1.5-0.3c-0.4-0.2-0.8-0.4-1.2-0.8c-0.3-0.3-0.6-0.7-0.7-1.2c-0.2-0.5-0.3-1-0.3-1.5
				c0-0.6,0.1-1.1,0.3-1.5c0.2-0.5,0.4-0.9,0.7-1.2c0.3-0.3,0.7-0.6,1.2-0.8c0.5-0.2,1-0.3,1.5-0.3c0.6,0,1.1,0.1,1.5,0.3
				c0.5,0.2,0.8,0.4,1.2,0.8c0.3,0.3,0.6,0.7,0.7,1.2C720.7,855.2,720.8,855.7,720.8,856.2z M719,856.2c0-0.8-0.2-1.3-0.5-1.8
				c-0.3-0.4-0.8-0.6-1.3-0.6c-0.4,0-0.7,0.1-1,0.3c-0.3,0.2-0.5,0.5-0.6,0.8c-0.1,0.4-0.2,0.8-0.2,1.3c0,0.5,0.1,0.9,0.2,1.3
				c0.1,0.4,0.4,0.6,0.6,0.8c0.3,0.2,0.6,0.3,1,0.3c0.6,0,1-0.2,1.3-0.6C718.8,857.6,719,857,719,856.2z"/>
			<path fill="#1D1D1B" d="M728.4,856.4v2.5c0,0.4-0.1,0.7-0.3,0.9c-0.2,0.2-0.4,0.3-0.7,0.3c-0.3,0-0.5-0.1-0.7-0.3
				c-0.2-0.2-0.3-0.5-0.3-0.9v-2.9c0-0.5,0-0.8,0-1.1c0-0.3-0.1-0.5-0.3-0.6c-0.1-0.2-0.4-0.2-0.7-0.2c-0.6,0-1,0.2-1.2,0.6
				c-0.2,0.4-0.3,1-0.3,1.8v2.5c0,0.4-0.1,0.7-0.3,0.9c-0.2,0.2-0.4,0.3-0.7,0.3c-0.3,0-0.5-0.1-0.7-0.3c-0.2-0.2-0.3-0.5-0.3-0.9
				v-5.3c0-0.3,0.1-0.6,0.2-0.8c0.2-0.2,0.4-0.3,0.6-0.3c0.3,0,0.5,0.1,0.6,0.2c0.2,0.2,0.3,0.4,0.3,0.7v0.2c0.3-0.4,0.7-0.7,1-0.8
				c0.4-0.2,0.8-0.3,1.2-0.3c0.5,0,0.9,0.1,1.2,0.3c0.3,0.2,0.6,0.5,0.8,0.8c0.3-0.4,0.6-0.7,1-0.8c0.4-0.2,0.8-0.3,1.2-0.3
				c0.5,0,0.9,0.1,1.3,0.3c0.4,0.2,0.6,0.5,0.8,0.9c0.2,0.3,0.2,0.9,0.2,1.6v3.6c0,0.4-0.1,0.7-0.3,0.9c-0.2,0.2-0.4,0.3-0.7,0.3
				c-0.3,0-0.5-0.1-0.7-0.3c-0.2-0.2-0.3-0.5-0.3-0.9v-3.1c0-0.4,0-0.7-0.1-1c0-0.2-0.1-0.4-0.3-0.6c-0.2-0.2-0.4-0.2-0.7-0.2
				c-0.2,0-0.5,0.1-0.7,0.2c-0.2,0.1-0.4,0.3-0.5,0.6C728.5,855,728.4,855.6,728.4,856.4z"/>
		</g>
		<g>
			<path fill="#1D1D1B" d="M639.5,847.7c0-0.1-0.1-0.2-0.1-0.4c0.6-0.1,1-0.8,0.7-1.4c-0.3-0.6-1.2-0.7-1.6-0.1
				c-0.4,0.5-0.1,1.3,0.5,1.5c0,0.1,0.1,0.3,0.1,0.4c-0.9,0.1-1.9,0.3-2.7,0.8c0.1,0.2,0.2,0.5,0.2,0.7c1.6-0.7,3.3-0.5,5-0.4
				c0.1-0.2,0.1-0.4,0.2-0.7C641.2,847.8,640.3,847.7,639.5,847.7z"/>
			<path fill="#1D1D1B" d="M648.9,850.3c-0.2,0.1-0.3,0.4-0.3,0.7c-0.3,0.3-0.1,0.7-0.2,1c-0.1,0.2-0.3,0.2-0.4,0.3
				c-0.2-0.3-0.4-0.7-0.7-0.9l0,0c-0.3-0.3-0.7-0.6-1-0.8c-0.3,0.3-0.6,0.6-0.9,0.9c0.6,0.6,1.1,1.3,1.5,2c0.3,0.5,0.6,1.1,0.8,1.7
				c0.5-0.2,0.9-0.5,1.4-0.7c-0.2-0.6-0.5-1.1-0.8-1.7c0.2-0.1,0.5-0.2,0.5-0.5c0-0.3,0-0.6,0.1-0.9c0.4,0.2,0.9,0,0.9-0.5
				C649.8,850.3,649.3,850,648.9,850.3z"/>
			<path fill="#1D1D1B" d="M646.3,853.7c-0.6-1-1.3-2-2.2-2.8c-1-0.9-2.4-1.5-3.8-1.5c-1.8,0-3.6,0.3-5.2,1
				c-1.5,0.7-2.9,1.9-3.5,3.4c-0.7,1.4-0.6,3-0.3,4.5c1.6,0.4,3.3,0.8,5,0.8c1.7,0.1,3.3,0.1,5-0.1c2.3-0.3,4.5-1,6.4-2.2
				C647.7,856.8,647.4,855.3,646.3,853.7z M638.4,855.7c-0.3,0.4-0.7,0.8-1.3,1c-1,0.4-2.1,0.1-2.8-0.6c-0.5-0.5-0.8-1.2-0.7-1.9
				c0-0.9,0.6-1.7,1.4-2.1c0.6-0.3,1.3-0.4,2-0.2c0.3,0.1,0.5,0.2,0.8,0.3c0.5,0.3,0.8,0.8,1,1.4C638.9,854.2,638.8,855,638.4,855.7
				z M645.2,854c-0.1,0.8-0.8,1.4-1.6,1.4c-0.5,0-0.9-0.2-1.2-0.5c-0.2-0.3-0.4-0.6-0.4-0.9c-0.1-0.8,0.4-1.6,1.2-1.8
				c0.3-0.1,0.7,0,1,0C644.9,852.5,645.4,853.3,645.2,854z"/>
			<path fill="#1D1D1B" d="M631.7,851.4c-0.7,0.4-1.2,1-1.7,1.6c-0.1-0.2-0.2-0.5-0.3-0.8c-0.1-0.1-0.3-0.1-0.4-0.1
				c-0.2,0-0.3,0-0.5-0.1c0.2-0.3,0.1-0.7-0.2-0.9c-0.3-0.2-0.8,0-0.9,0.3c-0.1,0.4,0.3,0.8,0.7,0.7c0.2,0.3,0.6,0.3,0.9,0.3
				c0.1,0.3,0.3,0.5,0.5,0.8c-0.4,0.7-0.6,1.5-0.6,2.3c0.5,0.2,0.9,0.4,1.4,0.6c0-0.5,0.1-1,0.2-1.5c0.2-1.1,0.8-2,1.5-2.7
				C632.1,851.7,631.9,851.6,631.7,851.4z"/>
			<path fill="#1D1D1B" d="M642.3,859.4c-1.7,0.4-3.4,0.5-5.1,0.4c-1.2-0.1-2.3-0.2-3.4-0.4c-0.8-0.2-1.6-0.4-2.4-0.6
				c0.1,1,0.5,2,1.1,2.8c0.7,1,1.6,1.8,2.8,2.2c0.9,0.2,2,0.5,3.8,0.5c1.5,0,3-0.2,4.3-0.8c0.9-0.4,1.7-0.9,2.4-1.5
				c0.6-0.6,1.1-1.3,1.4-2c0.3-0.7,0.6-2,0.6-2.6C646,858.3,644.2,859.1,642.3,859.4z"/>
		</g>
	</g>
</g>
</svg>
